<?xml version="1.0" standalone="no"?>
<!DOCTYPE svg PUBLIC "-//W3C//DTD SVG 20010904//EN"
 "http://www.w3.org/TR/2001/REC-SVG-20010904/DTD/svg10.dtd">
<svg version="1.0" xmlns="http://www.w3.org/2000/svg"
 width="980.000000pt" height="980.000000pt" viewBox="0 0 980.000000 980.000000"
 preserveAspectRatio="xMidYMid meet">
<metadata>
Created by potrace 1.14, written by Peter Selinger 2001-2017
</metadata>
<g transform="translate(0.000000,980.000000) scale(0.100000,-0.100000)"
fill="#000000" stroke="none">
<path d="M4608 9093 c6 -2 18 -2 25 0 6 3 1 5 -13 5 -14 0 -19 -2 -12 -5z"/>
<path d="M4753 9093 c9 -2 25 -2 35 0 9 3 1 5 -18 5 -19 0 -27 -2 -17 -5z"/>
<path d="M5133 9093 c9 -2 23 -2 30 0 6 3 -1 5 -18 5 -16 0 -22 -2 -12 -5z"/>
<path d="M4478 9083 c7 -3 16 -2 19 1 4 3 -2 6 -13 5 -11 0 -14 -3 -6 -6z"/>
<path d="M5288 9083 c7 -3 16 -2 19 1 4 3 -2 6 -13 5 -11 0 -14 -3 -6 -6z"/>
<path d="M5448 9063 c6 -2 18 -2 25 0 6 3 1 5 -13 5 -14 0 -19 -2 -12 -5z"/>
<path d="M4278 9053 c12 -2 30 -2 40 0 9 3 -1 5 -23 4 -22 0 -30 -2 -17 -4z"/>
<path d="M5520 9050 c14 -4 39 -8 55 -8 l30 0 -30 8 c-16 4 -41 8 -55 8 l-25
0 25 -8z"/>
<path d="M4153 9033 c9 -2 23 -2 30 0 6 3 -1 5 -18 5 -16 0 -22 -2 -12 -5z"/>
<path d="M4315 9030 c-3 -6 1 -7 9 -4 18 7 21 14 7 14 -6 0 -13 -4 -16 -10z"/>
<path d="M5628 9033 c7 -3 16 -2 19 1 4 3 -2 6 -13 5 -11 0 -14 -3 -6 -6z"/>
<path d="M4083 9023 c9 -2 25 -2 35 0 9 3 1 5 -18 5 -19 0 -27 -2 -17 -5z"/>
<path d="M5688 9023 c6 -2 18 -2 25 0 6 3 1 5 -13 5 -14 0 -19 -2 -12 -5z"/>
<path d="M4028 9013 c7 -3 16 -2 19 1 4 3 -2 6 -13 5 -11 0 -14 -3 -6 -6z"/>
<path d="M4158 9013 c6 -2 18 -2 25 0 6 3 1 5 -13 5 -14 0 -19 -2 -12 -5z"/>
<path d="M5608 9013 c6 -2 18 -2 25 0 6 3 1 5 -13 5 -14 0 -19 -2 -12 -5z"/>
<path d="M5798 9003 c7 -3 16 -2 19 1 4 3 -2 6 -13 5 -11 0 -14 -3 -6 -6z"/>
<path d="M3860 8974 l-45 -13 45 5 c25 3 49 10 55 15 12 12 1 10 -55 -7z"/>
<path d="M5915 8970 c17 -4 39 -8 50 -8 16 0 15 2 -5 8 -14 4 -36 8 -50 8 -22
0 -22 -1 5 -8z"/>
<path d="M5998 8953 c7 -3 16 -2 19 1 4 3 -2 6 -13 5 -11 0 -14 -3 -6 -6z"/>
<path d="M3725 8943 c-11 -3 -24 -9 -29 -14 -8 -7 45 3 79 16 15 5 -27 4 -50
-2z"/>
<path d="M5958 8933 c7 -3 16 -2 19 1 4 3 -2 6 -13 5 -11 0 -14 -3 -6 -6z"/>
<path d="M6078 8933 c7 -3 16 -2 19 1 4 3 -2 6 -13 5 -11 0 -14 -3 -6 -6z"/>
<path d="M3635 8910 c-3 -5 -2 -10 4 -10 5 0 13 5 16 10 3 6 2 10 -4 10 -5 0
-13 -4 -16 -10z"/>
<path d="M6180 8900 c0 -6 7 -10 15 -10 8 0 15 2 15 4 0 2 -7 6 -15 10 -8 3
-15 1 -15 -4z"/>
<path d="M3553 8885 c-18 -8 -33 -17 -33 -20 0 -3 5 -3 11 1 7 4 30 13 53 20
23 7 32 13 21 13 -11 0 -35 -6 -52 -14z"/>
<path d="M6228 8883 c7 -3 16 -2 19 1 4 3 -2 6 -13 5 -11 0 -14 -3 -6 -6z"/>
<path d="M3595 8870 c-3 -6 1 -7 9 -4 18 7 21 14 7 14 -6 0 -13 -4 -16 -10z"/>
<path d="M6270 8870 c0 -5 5 -10 11 -10 5 0 7 5 4 10 -3 6 -8 10 -11 10 -2 0
-4 -4 -4 -10z"/>
<path d="M6308 8853 c7 -3 16 -2 19 1 4 3 -2 6 -13 5 -11 0 -14 -3 -6 -6z"/>
<path d="M3365 8815 c-72 -34 -85 -48 -18 -18 90 39 117 53 103 52 -8 0 -46
-15 -85 -34z"/>
<path d="M6400 8820 c0 -6 7 -10 15 -10 8 0 15 2 15 4 0 2 -7 6 -15 10 -8 3
-15 1 -15 -4z"/>
<path d="M6470 8791 c19 -11 42 -20 50 -20 18 0 -25 24 -60 33 -19 5 -16 2 10
-13z"/>
<path d="M6575 8751 c-3 -5 4 -13 16 -16 28 -9 33 -2 9 13 -11 6 -21 8 -25 3z"/>
<path d="M3170 8733 c-14 -7 -18 -13 -10 -13 17 0 47 17 40 23 -3 2 -16 -2
-30 -10z"/>
<path d="M6640 8725 c0 -6 56 -35 67 -35 10 0 -27 25 -49 33 -10 4 -18 4 -18
2z"/>
<path d="M3070 8690 c-8 -5 -10 -10 -5 -10 6 0 17 5 25 10 8 5 11 10 5 10 -5
0 -17 -5 -25 -10z"/>
<path d="M2960 8634 c-36 -19 -54 -32 -40 -28 14 3 40 15 58 26 18 11 39 17
47 14 9 -3 12 0 8 10 -3 7 -6 14 -7 13 0 0 -30 -16 -66 -35z"/>
<path d="M6760 8660 c0 -6 7 -10 15 -10 8 0 15 2 15 4 0 2 -7 6 -15 10 -8 3
-15 1 -15 -4z"/>
<path d="M6806 8641 c10 -11 84 -43 84 -37 0 5 -78 46 -87 46 -4 0 -3 -4 3 -9z"/>
<path d="M2848 8574 c-16 -8 -28 -17 -28 -19 0 -10 16 -4 40 15 30 23 25 25
-12 4z"/>
<path d="M6950 8565 c0 -2 15 -12 33 -20 l32 -16 -25 20 c-24 20 -40 26 -40
16z"/>
<path d="M2775 8529 c-16 -10 -25 -19 -19 -19 7 0 22 9 35 20 30 24 23 24 -16
-1z"/>
<path d="M7040 8515 c8 -9 32 -26 53 -37 30 -15 37 -22 26 -29 -8 -5 -9 -9 -4
-9 37 0 27 19 -28 53 -33 21 -54 31 -47 22z"/>
<path d="M2697 8484 c-16 -9 -27 -18 -24 -20 3 -3 20 4 38 15 39 24 28 28 -14
5z"/>
<path d="M2547 8385 c-16 -11 -16 -13 -2 -19 9 -3 14 -2 10 3 -3 5 1 11 7 14
7 2 11 7 8 10 -3 3 -13 0 -23 -8z"/>
<path d="M2475 8336 c-17 -7 -37 -21 -45 -32 -12 -15 -9 -14 17 4 17 12 38 22
47 22 9 0 16 5 16 10 0 12 2 12 -35 -4z"/>
<path d="M7310 8330 c0 -5 5 -10 11 -10 5 0 7 5 4 10 -3 6 -8 10 -11 10 -2 0
-4 -4 -4 -10z"/>
<path d="M7345 8310 c3 -5 16 -15 28 -21 22 -12 22 -12 3 10 -19 21 -43 30
-31 11z"/>
<path d="M2454 8294 c-18 -14 -18 -15 4 -4 12 6 22 13 22 15 0 8 -5 6 -26 -11z"/>
<path d="M2354 8245 c-10 -8 -14 -14 -9 -14 6 0 19 6 29 14 11 8 15 15 10 15
-6 0 -19 -7 -30 -15z"/>
<path d="M7455 8230 c21 -16 41 -30 44 -30 9 1 -62 60 -72 60 -6 0 7 -13 28
-30z"/>
<path d="M2304 8209 c-19 -22 -19 -22 4 -10 12 6 22 16 22 21 0 15 -5 12 -26
-11z"/>
<path d="M7534 8171 c7 -11 46 -35 46 -28 0 3 -12 12 -26 22 -15 9 -23 12 -20
6z"/>
<path d="M7524 8141 c0 -11 5 -17 13 -14 10 4 11 9 2 19 -15 18 -15 18 -15 -5z"/>
<path d="M2210 8135 c-8 -9 -8 -15 -2 -15 12 0 26 19 19 26 -2 2 -10 -2 -17
-11z"/>
<path d="M2260 8140 c0 -5 5 -10 10 -10 6 0 10 5 10 10 0 6 -4 10 -10 10 -5 0
-10 -4 -10 -10z"/>
<path d="M2177 8103 c-4 -3 -7 -11 -7 -17 0 -6 5 -5 12 2 6 6 9 14 7 17 -3 3
-9 2 -12 -2z"/>
<path d="M7625 8090 c3 -5 8 -10 11 -10 2 0 4 5 4 10 0 6 -5 10 -11 10 -5 0
-7 -4 -4 -10z"/>
<path d="M7650 8072 c0 -10 49 -46 55 -40 1 2 -11 13 -26 26 -16 13 -29 19
-29 14z"/>
<path d="M7610 8060 c0 -5 5 -10 10 -10 6 0 10 5 10 10 0 6 -4 10 -10 10 -5 0
-10 -4 -10 -10z"/>
<path d="M2047 7993 l-26 -28 39 -1 c35 -1 37 0 24 13 -8 9 -13 22 -10 29 8
20 3 18 -27 -13z m23 -13 c0 -5 -4 -10 -10 -10 -5 0 -10 5 -10 10 0 6 5 10 10
10 6 0 10 -4 10 -10z"/>
<path d="M2100 8009 c0 -5 5 -7 10 -4 6 3 10 8 10 11 0 2 -4 4 -10 4 -5 0 -10
-5 -10 -11z"/>
<path d="M7720 8010 c12 -7 11 -12 -7 -28 l-22 -19 44 1 44 1 -26 28 c-15 15
-32 27 -37 27 -6 0 -4 -4 4 -10z m30 -30 c0 -5 -4 -10 -10 -10 -5 0 -10 5 -10
10 0 6 5 10 10 10 6 0 10 -4 10 -10z"/>
<path d="M7790 7943 c0 -13 29 -38 35 -31 3 3 -4 13 -15 23 -11 10 -20 13 -20
8z"/>
<path d="M7860 7864 c0 -9 32 -33 44 -34 5 0 1 9 -9 20 -18 20 -35 26 -35 14z"/>
<path d="M1897 7842 c-15 -16 -15 -18 1 -18 10 0 18 8 18 18 0 10 -1 18 -2 18
0 0 -8 -8 -17 -18z"/>
<path d="M7950 7782 c0 -5 7 -15 15 -22 8 -7 15 -8 15 -2 0 5 -7 15 -15 22 -8
7 -15 8 -15 2z"/>
<path d="M1807 7752 l-27 -28 28 1 c23 0 27 4 27 28 1 15 0 27 0 27 -1 0 -13
-13 -28 -28z m23 -12 c0 -5 -4 -10 -10 -10 -5 0 -10 5 -10 10 0 6 5 10 10 10
6 0 10 -4 10 -10z"/>
<path d="M8003 7710 c-1 -16 1 -17 12 -7 7 6 11 15 8 20 -8 13 -19 7 -20 -13z"/>
<path d="M8030 7696 c0 -2 7 -9 15 -16 13 -11 14 -10 9 4 -5 14 -24 23 -24 12z"/>
<path d="M8081 7643 c7 -12 15 -20 18 -17 3 2 -3 12 -13 22 -17 16 -18 16 -5
-5z"/>
<path d="M1695 7619 c-11 -17 1 -21 15 -4 8 9 8 15 2 15 -6 0 -14 -5 -17 -11z"/>
<path d="M8120 7585 c13 -14 27 -25 32 -25 5 0 -2 11 -16 25 -14 14 -28 25
-32 25 -4 0 3 -11 16 -25z"/>
<path d="M1655 7576 c-15 -23 -12 -56 6 -56 13 0 11 18 -3 22 -7 3 -5 13 7 31
9 15 15 27 11 27 -3 0 -12 -11 -21 -24z"/>
<path d="M8179 7511 c11 -15 17 -31 14 -35 -4 -4 0 -4 10 0 15 5 15 9 -6 34
-29 38 -44 38 -18 1z"/>
<path d="M1590 7495 c-7 -9 -11 -18 -8 -20 3 -3 11 1 18 10 7 9 11 18 8 20 -3
3 -11 -1 -18 -10z"/>
<path d="M1555 7450 c-3 -5 -1 -10 4 -10 6 0 11 5 11 10 0 6 -2 10 -4 10 -3 0
-8 -4 -11 -10z"/>
<path d="M1492 7368 c-17 -17 -15 -33 3 -18 12 10 15 10 15 0 0 -8 3 -11 6 -7
3 3 2 13 -3 21 -7 13 -12 13 -21 4z"/>
<path d="M8320 7330 c6 -11 13 -20 16 -20 2 0 0 9 -6 20 -6 11 -13 20 -16 20
-2 0 0 -9 6 -20z"/>
<path d="M8340 7284 c0 -8 5 -12 10 -9 6 4 8 11 5 16 -9 14 -15 11 -15 -7z"/>
<path d="M1421 7254 c0 -11 3 -14 6 -6 3 7 2 16 -1 19 -3 4 -6 -2 -5 -13z"/>
<path d="M8410 7204 c1 -13 29 -48 34 -43 2 2 -4 15 -15 28 -10 13 -19 19 -19
15z"/>
<path d="M8445 7130 c3 -5 8 -10 11 -10 2 0 4 5 4 10 0 6 -5 10 -11 10 -5 0
-7 -4 -4 -10z"/>
<path d="M1320 7109 c0 -5 5 -7 10 -4 6 3 10 8 10 11 0 2 -4 4 -10 4 -5 0 -10
-5 -10 -11z"/>
<path d="M1305 7079 c-4 -6 -5 -12 -2 -15 2 -3 7 2 10 11 7 17 1 20 -8 4z"/>
<path d="M1336 7075 c-3 -8 -1 -15 4 -15 6 0 10 7 10 15 0 8 -2 15 -4 15 -2 0
-6 -7 -10 -15z"/>
<path d="M8490 7078 c0 -12 42 -79 47 -74 3 2 -7 22 -21 43 -14 20 -26 35 -26
31z"/>
<path d="M7613 7053 c9 -2 23 -2 30 0 6 3 -1 5 -18 5 -16 0 -22 -2 -12 -5z"/>
<path d="M1271 7023 c-10 -26 -10 -27 4 -9 8 11 15 23 15 28 0 15 -7 8 -19
-19z"/>
<path d="M2210 7036 c14 -18 13 -18 -18 -12 -27 6 -32 5 -32 -11 0 -15 2 -16
10 -3 6 10 10 -651 11 -1875 0 -1039 3 -1884 6 -1877 4 9 183 12 856 11 469
-1 840 -4 824 -6 -15 -2 -25 -8 -22 -13 3 -5 12 -7 20 -3 19 7 20 17 -16 -112
-16 -60 -36 -132 -44 -160 -7 -27 -38 -135 -68 -240 -30 -104 -60 -213 -67
-242 -8 -29 -17 -50 -21 -47 -4 2 -5 -6 -1 -18 3 -14 1 -19 -6 -14 -8 4 -10 2
-6 -8 3 -8 2 -21 -2 -28 -6 -9 -10 -5 -14 12 -6 24 -7 24 -11 -6 -4 -24 -2
-31 8 -27 7 3 13 0 13 -6 0 -6 -4 -11 -10 -11 -5 0 -7 -6 -5 -12 6 -19 -30
-143 -38 -131 -4 6 -2 24 3 39 14 37 6 42 -9 5 -9 -20 -10 -35 -3 -48 15 -27
-15 -133 -37 -133 -13 0 -13 -2 -2 -9 11 -7 11 -9 0 -14 -8 -3 598 -6 1346 -6
748 0 1366 3 1373 7 10 7 9 17 -3 53 -9 24 -13 55 -10 69 4 17 3 20 -3 12 -12
-18 -23 23 -17 58 3 14 2 18 -2 10 -4 -10 -11 2 -19 34 -10 37 -10 55 -2 70
11 20 10 20 -7 6 -17 -14 -18 -13 -12 2 3 10 1 20 -4 24 -6 3 -8 18 -5 33 5
21 4 23 -5 11 -9 -12 -10 -11 -6 8 3 12 2 22 -2 22 -11 0 -43 119 -36 131 4 5
1 9 -4 9 -6 0 -11 8 -11 18 0 9 -9 44 -20 76 -11 33 -18 69 -14 80 4 15 3 17
-4 8 -14 -21 -35 73 -22 98 15 28 12 37 -5 14 -14 -18 -15 -17 -9 11 4 24 3
27 -6 15 -10 -13 -11 -12 -6 4 4 11 3 22 -2 25 -13 10 -52 150 -45 167 5 13 8
13 15 2 7 -9 8 -8 4 5 -3 10 -6 24 -6 30 -1 7 -7 1 -15 -13 -14 -24 -15 -23
-10 20 3 27 2 36 -3 21 -6 -19 -10 -14 -24 38 l-16 61 854 0 854 0 -2 1873 -3
1872 -2689 3 c-2544 2 -2691 3 -2710 20 -20 16 -20 16 -6 -2z m2690 -3556
l2510 0 3 1668 2 1667 3 -1672 2 -1673 -2520 0 -2520 0 2 1678 3 1677 2 -1672
3 -1673 2510 0z m2467 3318 c0 -10 -21 -12 -81 -8 l-81 5 80 5 c44 4 80 7 81
8 0 1 1 -4 1 -10z m-4849 -5 c-21 -2 -57 -2 -80 0 -24 2 -7 4 37 4 44 0 63 -2
43 -4z m252 -383 c0 -5 -2 -10 -4 -10 -3 0 -8 5 -11 10 -3 6 -1 10 4 10 6 0
11 -4 11 -10z m2108 3 l-2088 -3 -3 -1103 -2 -1102 -3 1108 -2 1107 2093 -2
2092 -3 -2087 -2z m2140 -1082 c2 -853 5 -1087 15 -1093 8 -5 7 -8 -5 -8 -17
0 -18 58 -18 1089 l0 1090 -22 4 c-20 5 -20 5 2 4 l25 -2 3 -1084z m-4268
1047 c0 -18 -2 -20 -9 -8 -6 8 -7 18 -5 22 9 14 14 9 14 -14z m4060 -1063 l0
-895 -1910 0 -1910 0 0 895 0 895 1910 0 1910 0 0 -895z m153 -1102 c5 -7
-1420 -7 -3418 0 -412 1 187 3 1332 5 1145 1 2084 -1 2086 -5z m-1880 -250 c3
-5 -50 -7 -116 -5 -228 5 -252 8 -70 10 100 1 184 -1 186 -5z m30 -52 c-4 -4
-11 -10 -14 -14 -4 -5 -6 3 -5 16 1 20 4 23 14 15 7 -6 9 -14 5 -17z m-16 -53
c-3 -8 -6 -5 -6 6 -1 11 2 17 5 13 3 -3 4 -12 1 -19z m0 -75 c-3 -10 -5 -4 -5
12 0 17 2 24 5 18 2 -7 2 -21 0 -30z m-182 -33 c-88 -3 -169 -2 -180 2 -11 4
61 6 160 5 l180 -1 -160 -6z m-5 -490 c-437 -3 -786 -8 -775 -11 14 -5 11 -6
-11 -5 -21 1 -30 5 -27 14 4 9 173 11 807 10 l801 -3 -795 -5z m802 -62 c-9
-9 -12 -7 -12 12 0 19 3 21 12 12 9 -9 9 -15 0 -24z m-1612 12 c0 -5 -4 -10
-10 -10 -5 0 -10 5 -10 10 0 6 5 10 10 10 6 0 10 -4 10 -10z m-23 -42 c-3 -8
-6 -5 -6 6 -1 11 2 17 5 13 3 -3 4 -12 1 -19z m1650 0 c-3 -8 -6 -5 -6 6 -1
11 2 17 5 13 3 -3 4 -12 1 -19z m-24 -13 c-3 -9 -8 -14 -10 -11 -3 3 -2 9 2
15 9 16 15 13 8 -4z m-1644 -59 c-6 -21 -12 -36 -14 -34 -3 2 0 21 6 42 6 21
12 36 14 34 3 -2 0 -21 -6 -42z m1700 -26 c0 -9 -4 -8 -9 5 -5 11 -9 27 -9 35
0 9 4 8 9 -5 5 -11 9 -27 9 -35z m8 -42 c-3 -8 -6 -5 -6 6 -1 11 2 17 5 13 3
-3 4 -12 1 -19z m22 -68 c0 -9 -4 -8 -9 5 -5 11 -9 27 -9 35 0 9 4 8 9 -5 5
-11 9 -27 9 -35z m-1742 18 c-3 -8 -6 -5 -6 6 -1 11 2 17 5 13 3 -3 4 -12 1
-19z m-21 -14 c-4 -9 -9 -15 -11 -12 -3 3 -3 13 1 22 4 9 9 15 11 12 3 -3 3
-13 -1 -22z m1751 -46 c-3 -8 -6 -5 -6 6 -1 11 2 17 5 13 3 -3 4 -12 1 -19z
m27 -13 c5 -22 4 -26 -4 -15 -5 8 -10 24 -10 34 0 26 6 18 14 -19z m-1807 -27
c-3 -8 -6 -5 -6 6 -1 11 2 17 5 13 3 -3 4 -12 1 -19z m1782 -33 c0 -5 -4 -3
-9 5 -5 8 -9 22 -9 30 0 16 17 -16 18 -35z m-1792 -10 c-15 -16 -19 -13 -11 9
3 9 10 13 15 10 5 -3 3 -11 -4 -19z m1790 -37 c-3 -8 -6 -5 -6 6 -1 11 2 17 5
13 3 -3 4 -12 1 -19z m27 -12 c-3 -15 -8 -25 -11 -23 -2 3 -1 17 3 31 3 15 8
25 11 23 2 -3 1 -17 -3 -31z m45 -36 c0 -8 -7 1 -14 20 -18 46 -17 64 0 25 8
-16 14 -37 14 -45z m-1852 38 c-3 -8 -6 -5 -6 6 -1 11 2 17 5 13 3 -3 4 -12 1
-19z m-35 -40 c-6 -18 -13 -42 -18 -52 -5 -14 -4 -17 4 -12 8 5 10 2 5 -10 -5
-13 -7 -14 -14 -2 -4 7 0 39 9 71 9 31 18 53 20 47 2 -5 -1 -24 -6 -42z m1905
-70 c-3 -8 -6 -5 -6 6 -1 11 2 17 5 13 3 -3 4 -12 1 -19z m-1940 -40 c-3 -8
-6 -5 -6 6 -1 11 2 17 5 13 3 -3 4 -12 1 -19z m-10 -40 c-3 -8 -6 -5 -6 6 -1
11 2 17 5 13 3 -3 4 -12 1 -19z m1940 0 c-3 -8 -6 -5 -6 6 -1 11 2 17 5 13 3
-3 4 -12 1 -19z m33 12 c0 -5 -5 -10 -11 -10 -5 0 -7 5 -4 10 3 6 8 10 11 10
2 0 4 -4 4 -10z m-20 -60 c-5 -22 -8 -27 -9 -13 -1 21 9 56 14 51 2 -2 0 -19
-5 -38z m-1970 -7 c-11 -17 -11 -17 -6 0 3 10 6 24 7 30 0 9 2 9 5 0 3 -7 0
-20 -6 -30z m9 -78 c0 -5 -6 1 -14 15 -8 14 -14 30 -14 35 0 6 6 -1 14 -15 8
-14 14 -29 14 -35z m2008 33 c-3 -8 -6 -5 -6 6 -1 11 2 17 5 13 3 -3 4 -12 1
-19z m-2050 -83 c-11 -30 -21 -54 -23 -53 -6 7 30 117 36 113 4 -3 -1 -30 -13
-60z m2072 15 c0 -9 -4 -8 -9 5 -5 11 -9 27 -9 35 0 9 4 8 9 -5 5 -11 9 -27 9
-35z m-2052 -22 c-3 -8 -6 -5 -6 6 -1 11 2 17 5 13 3 -3 4 -12 1 -19z m2060
-20 c-3 -8 -6 -5 -6 6 -1 11 2 17 5 13 3 -3 4 -12 1 -19z m-2060 -20 c-3 -8
-6 -5 -6 6 -1 11 2 17 5 13 3 -3 4 -12 1 -19z m2076 -59 c-5 -5 -9 6 -10 28 0
37 0 38 9 10 6 -18 7 -32 1 -38z m-2126 9 c-3 -8 -6 -5 -6 6 -1 11 2 17 5 13
3 -3 4 -12 1 -19z m2107 -23 c5 -22 4 -26 -4 -15 -5 8 -10 24 -10 34 0 26 6
18 14 -19z m36 -5 c0 -5 -5 -10 -11 -10 -5 0 -7 5 -4 10 3 6 8 10 11 10 2 0 4
-4 4 -10z m-43 -52 c-3 -8 -6 -5 -6 6 -1 11 2 17 5 13 3 -3 4 -12 1 -19z"/>
<path d="M5090 5978 c-13 -29 -41 -91 -63 -138 -21 -47 -48 -105 -59 -130 -11
-25 -128 -280 -259 -568 -132 -287 -239 -527 -239 -532 0 -6 45 -10 108 -10
l108 0 317 693 c175 380 320 701 323 713 5 20 1 21 -103 23 l-109 2 -24 -53z"/>
<path d="M3933 5673 l-373 -176 0 -109 0 -109 53 -23 c28 -13 195 -92 371
-175 175 -83 323 -151 328 -151 5 0 7 51 6 115 l-3 116 -200 95 c-110 53 -220
105 -245 116 -29 13 -40 22 -30 26 8 3 75 34 148 69 73 34 135 63 137 63 2 0
46 20 99 45 l96 45 0 115 c0 63 -3 115 -7 114 -5 0 -176 -80 -380 -176z"/>
<path d="M5482 5735 l3 -118 242 -111 c133 -61 239 -114 235 -117 -4 -4 -113
-57 -242 -117 l-235 -111 -3 -116 c-1 -65 1 -115 7 -115 5 0 73 31 152 68 79
38 187 88 239 113 52 24 153 72 225 106 l130 61 3 109 3 110 -368 173 c-202
95 -374 175 -381 177 -10 4 -12 -20 -10 -112z"/>
<path d="M7610 7030 c0 -5 7 -10 16 -10 8 0 12 5 9 10 -3 6 -10 10 -16 10 -5
0 -9 -4 -9 -10z"/>
<path d="M7635 6998 c-3 -7 -4 -839 -3 -1848 l3 -1835 3 1842 c1 1462 5 1842
15 1846 9 4 9 6 -1 6 -7 1 -15 -5 -17 -11z"/>
<path d="M1231 6962 c-6 -12 -11 -27 -11 -34 1 -7 8 0 16 15 9 16 13 31 11 34
-3 2 -10 -4 -16 -15z"/>
<path d="M8555 6960 c-3 -5 -1 -10 4 -10 6 0 11 5 11 10 0 6 -2 10 -4 10 -3 0
-8 -4 -11 -10z"/>
<path d="M8570 6930 c0 -5 5 -10 11 -10 5 0 7 5 4 10 -3 6 -8 10 -11 10 -2 0
-4 -4 -4 -10z"/>
<path d="M8590 6893 c0 -6 5 -15 11 -18 6 -4 8 -13 5 -21 -3 -8 -1 -14 4 -14
6 0 10 6 10 13 0 17 -29 56 -30 40z"/>
<path d="M1162 6828 c-12 -24 -22 -47 -22 -53 0 -5 10 9 22 32 12 23 25 40 30
37 4 -3 5 2 2 10 -3 9 -7 16 -8 16 0 0 -11 -19 -24 -42z"/>
<path d="M8640 6815 c0 -5 5 -17 10 -25 5 -8 10 -10 10 -5 0 6 -5 17 -10 25
-5 8 -10 11 -10 5z"/>
<path d="M1106 6725 c-9 -26 -7 -32 5 -12 6 10 9 21 6 23 -2 3 -7 -2 -11 -11z"/>
<path d="M8686 6707 c3 -10 9 -15 12 -12 3 3 0 11 -7 18 -10 9 -11 8 -5 -6z"/>
<path d="M1080 6669 c0 -5 5 -7 10 -4 6 3 10 8 10 11 0 2 -4 4 -10 4 -5 0 -10
-5 -10 -11z"/>
<path d="M1071 6643 c-1 -6 -4 -20 -7 -30 -5 -17 -5 -17 6 0 6 10 9 23 6 30
-3 9 -5 9 -5 0z"/>
<path d="M8730 6613 c0 -4 5 -15 10 -23 8 -13 10 -13 10 2 0 9 -4 20 -10 23
-5 3 -10 3 -10 -2z"/>
<path d="M1016 6525 c-9 -26 -7 -32 5 -12 6 10 9 21 6 23 -2 3 -7 -2 -11 -11z"/>
<path d="M8770 6511 c0 -11 4 -22 9 -25 4 -3 6 6 3 19 -5 30 -12 33 -12 6z"/>
<path d="M991 6454 c-7 -20 -11 -38 -8 -40 3 -3 10 11 17 31 16 47 8 55 -9 9z"/>
<path d="M1021 6474 c0 -11 3 -14 6 -6 3 7 2 16 -1 19 -3 4 -6 -2 -5 -13z"/>
<path d="M8801 6454 c0 -11 3 -14 6 -6 3 7 2 16 -1 19 -3 4 -6 -2 -5 -13z"/>
<path d="M965 6391 c-3 -5 -1 -12 5 -16 5 -3 10 1 10 9 0 18 -6 21 -15 7z"/>
<path d="M8840 6358 c0 -20 19 -72 25 -67 2 3 -2 23 -10 44 -8 22 -14 32 -15
23z"/>
<path d="M916 6258 c-8 -41 -1 -47 12 -9 6 17 7 33 3 36 -5 2 -11 -9 -15 -27z"/>
<path d="M8881 6240 c0 -8 4 -24 9 -35 5 -13 9 -14 9 -5 0 8 -4 24 -9 35 -5
13 -9 14 -9 5z"/>
<path d="M900 6190 c0 -19 3 -21 12 -12 9 9 9 15 0 24 -9 9 -12 7 -12 -12z"/>
<path d="M8891 6135 c1 -19 18 -51 18 -35 0 8 -4 22 -9 30 -5 8 -9 11 -9 5z"/>
<path d="M8920 6114 c0 -10 5 -26 10 -34 8 -11 9 -7 4 15 -8 37 -14 45 -14 19z"/>
<path d="M861 6084 c0 -11 3 -14 6 -6 3 7 2 16 -1 19 -3 4 -6 -2 -5 -13z"/>
<path d="M8961 5974 c0 -11 3 -14 6 -6 3 7 2 16 -1 19 -3 4 -6 -2 -5 -13z"/>
<path d="M830 5971 c0 -6 4 -13 10 -16 6 -3 7 1 4 9 -7 18 -14 21 -14 7z"/>
<path d="M818 5907 c-3 -19 -2 -25 4 -19 6 6 8 18 6 28 -3 14 -5 12 -10 -9z"/>
<path d="M8981 5870 c0 -8 4 -24 9 -35 5 -13 9 -14 9 -5 0 8 -4 24 -9 35 -5
13 -9 14 -9 5z"/>
<path d="M8971 5815 c1 -19 18 -51 18 -35 0 8 -4 22 -9 30 -5 8 -9 11 -9 5z"/>
<path d="M9007 5773 c4 -16 7 -41 6 -58 -1 -26 0 -27 7 -8 8 20 -4 93 -16 93
-2 0 -1 -12 3 -27z"/>
<path d="M787 5773 c-3 -4 -10 -33 -16 -63 -6 -30 -13 -66 -17 -80 -4 -14 -4
-23 -1 -20 8 8 49 162 43 167 -2 2 -6 1 -9 -4z"/>
<path d="M9025 5670 c3 -5 8 -10 11 -10 2 0 4 5 4 10 0 6 -5 10 -11 10 -5 0
-7 -4 -4 -10z"/>
<path d="M9042 5610 c0 -14 2 -19 5 -12 2 6 2 18 0 25 -3 6 -5 1 -5 -13z"/>
<path d="M742 5540 c0 -19 2 -27 5 -17 2 9 2 25 0 35 -3 9 -5 1 -5 -18z"/>
<path d="M9052 5535 c0 -16 2 -22 5 -12 2 9 2 23 0 30 -3 6 -5 -1 -5 -18z"/>
<path d="M781 5494 c0 -11 3 -14 6 -6 3 7 2 16 -1 19 -3 4 -6 -2 -5 -13z"/>
<path d="M9061 5484 c0 -11 3 -14 6 -6 3 7 2 16 -1 19 -3 4 -6 -2 -5 -13z"/>
<path d="M9065 5416 c3 -27 5 -59 5 -72 0 -13 4 -24 8 -24 5 0 5 28 0 63 -10
76 -20 101 -13 33z"/>
<path d="M9051 5334 c0 -11 3 -14 6 -6 3 7 2 16 -1 19 -3 4 -6 -2 -5 -13z"/>
<path d="M712 5310 c0 -14 2 -19 5 -12 2 6 2 18 0 25 -3 6 -5 1 -5 -13z"/>
<path d="M9081 5254 c0 -11 3 -14 6 -6 3 7 2 16 -1 19 -3 4 -6 -2 -5 -13z"/>
<path d="M703 5140 c0 -36 2 -50 4 -32 2 17 2 47 0 65 -2 17 -4 3 -4 -33z"/>
<path d="M9092 5180 c0 -14 2 -19 5 -12 2 6 2 18 0 25 -3 6 -5 1 -5 -13z"/>
<path d="M9072 5135 c0 -16 2 -22 5 -12 2 9 2 23 0 30 -3 6 -5 -1 -5 -18z"/>
<path d="M9071 5064 c0 -11 3 -14 6 -6 3 7 2 16 -1 19 -3 4 -6 -2 -5 -13z"/>
<path d="M692 5020 c0 -14 2 -19 5 -12 2 6 2 18 0 25 -3 6 -5 1 -5 -13z"/>
<path d="M9072 4980 c0 -14 2 -19 5 -12 2 6 2 18 0 25 -3 6 -5 1 -5 -13z"/>
<path d="M693 4880 c0 -25 2 -35 4 -22 2 12 2 32 0 45 -2 12 -4 2 -4 -23z"/>
<path d="M9073 4880 c0 -25 2 -35 4 -22 2 12 2 32 0 45 -2 12 -4 2 -4 -23z"/>
<path d="M9103 4860 c0 -36 2 -50 4 -32 2 17 2 47 0 65 -2 17 -4 3 -4 -33z"/>
<path d="M9071 4774 c0 -11 3 -14 6 -6 3 7 2 16 -1 19 -3 4 -6 -2 -5 -13z"/>
<path d="M9072 4700 c0 -14 2 -19 5 -12 2 6 2 18 0 25 -3 6 -5 1 -5 -13z"/>
<path d="M702 4655 c0 -16 2 -22 5 -12 2 9 2 23 0 30 -3 6 -5 -1 -5 -18z"/>
<path d="M9092 4660 c0 -14 2 -19 5 -12 2 6 2 18 0 25 -3 6 -5 1 -5 -13z"/>
<path d="M9071 4534 c0 -11 3 -14 6 -6 3 7 2 16 -1 19 -3 4 -6 -2 -5 -13z"/>
<path d="M712 4495 c0 -16 2 -22 5 -12 2 9 2 23 0 30 -3 6 -5 -1 -5 -18z"/>
<path d="M9065 4360 c-4 -17 -5 -34 -2 -36 2 -3 7 10 11 27 8 42 0 50 -9 9z"/>
<path d="M737 4310 c3 -30 7 -57 9 -59 7 -8 2 64 -6 89 -6 16 -7 6 -3 -30z"/>
<path d="M776 4284 c-4 -20 -5 -38 -3 -40 3 -3 8 11 11 32 4 20 5 38 3 40 -3
3 -8 -11 -11 -32z"/>
<path d="M9046 4258 c-3 -13 -5 -36 -5 -53 1 -21 4 -15 10 20 8 52 6 72 -5 33z"/>
<path d="M757 4185 c3 -32 10 -71 14 -85 10 -31 1 59 -12 110 -6 25 -6 18 -2
-25z"/>
<path d="M781 4184 c0 -11 3 -14 6 -6 3 7 2 16 -1 19 -3 4 -6 -2 -5 -13z"/>
<path d="M9022 4100 c0 -14 2 -19 5 -12 2 6 2 18 0 25 -3 6 -5 1 -5 -13z"/>
<path d="M8972 4060 c0 -19 2 -27 5 -17 2 9 2 25 0 35 -3 9 -5 1 -5 -18z"/>
<path d="M9001 4030 c-1 -8 -4 -26 -7 -40 -5 -22 -4 -23 6 -7 6 10 9 28 7 40
-2 12 -5 15 -6 7z"/>
<path d="M791 3994 c0 -11 3 -14 6 -6 3 7 2 16 -1 19 -3 4 -6 -2 -5 -13z"/>
<path d="M812 3940 c0 -14 2 -19 5 -12 2 6 2 18 0 25 -3 6 -5 1 -5 -13z"/>
<path d="M8981 3904 c-6 -21 -9 -40 -6 -42 2 -2 8 13 14 34 6 21 9 40 6 42 -2
2 -8 -13 -14 -34z"/>
<path d="M826 3865 c8 -50 14 -58 14 -19 0 16 -5 36 -11 44 -7 11 -8 4 -3 -25z"/>
<path d="M8961 3834 c0 -11 3 -14 6 -6 3 7 2 16 -1 19 -3 4 -6 -2 -5 -13z"/>
<path d="M862 3815 c0 -16 2 -22 5 -12 2 9 2 23 0 30 -3 6 -5 -1 -5 -18z"/>
<path d="M8937 3763 c-4 -3 -7 -18 -6 -32 1 -26 1 -25 10 3 9 31 7 41 -4 29z"/>
<path d="M861 3715 c1 -19 18 -51 18 -35 0 8 -4 22 -9 30 -5 8 -9 11 -9 5z"/>
<path d="M8921 3684 c0 -11 3 -14 6 -6 3 7 2 16 -1 19 -3 4 -6 -2 -5 -13z"/>
<path d="M8892 3665 c0 -16 2 -22 5 -12 2 9 2 23 0 30 -3 6 -5 -1 -5 -18z"/>
<path d="M901 3604 c0 -11 3 -14 6 -6 3 7 2 16 -1 19 -3 4 -6 -2 -5 -13z"/>
<path d="M910 3573 c0 -18 20 -66 25 -61 3 3 -1 20 -9 39 -9 19 -15 29 -16 22z"/>
<path d="M8846 3503 c-4 -9 -2 -21 4 -27 7 -7 10 -2 10 17 0 31 -5 34 -14 10z"/>
<path d="M941 3484 c0 -11 3 -14 6 -6 3 7 2 16 -1 19 -3 4 -6 -2 -5 -13z"/>
<path d="M8832 3435 c-7 -14 -12 -31 -12 -38 1 -7 7 3 16 22 17 39 13 54 -4
16z"/>
<path d="M982 3369 c6 -16 12 -29 13 -27 6 6 -8 58 -16 58 -4 0 -3 -14 3 -31z"/>
<path d="M1011 3310 c0 -8 4 -22 9 -30 12 -18 12 -2 0 25 -6 13 -9 15 -9 5z"/>
<path d="M7635 3300 c3 -5 8 -10 11 -10 2 0 4 5 4 10 0 6 -5 10 -11 10 -5 0
-7 -4 -4 -10z"/>
<path d="M7662 3277 c-6 -7 -7 -19 -3 -26 6 -9 10 -5 13 13 6 30 5 31 -10 13z"/>
<path d="M7632 3260 c0 -14 2 -19 5 -12 2 6 2 18 0 25 -3 6 -5 1 -5 -13z"/>
<path d="M8756 3245 c-3 -8 -1 -15 4 -15 6 0 10 7 10 15 0 8 -2 15 -4 15 -2 0
-6 -7 -10 -15z"/>
<path d="M5938 3218 c2 -10 6 -18 7 -18 1 0 5 8 7 18 3 11 0 19 -7 19 -7 0
-10 -8 -7 -19z"/>
<path d="M8741 3204 c0 -11 3 -14 6 -6 3 7 2 16 -1 19 -3 4 -6 -2 -5 -13z"/>
<path d="M1066 3178 c3 -13 11 -30 16 -38 8 -12 8 -11 4 4 -5 14 -2 17 11 12
17 -6 17 -5 1 8 -10 7 -18 18 -18 25 0 6 -5 11 -11 11 -6 0 -8 -9 -3 -22z"/>
<path d="M3835 3159 c-4 -6 -5 -12 -2 -15 2 -3 7 2 10 11 7 17 1 20 -8 4z"/>
<path d="M1096 3107 c3 -10 9 -15 12 -12 3 3 0 11 -7 18 -10 9 -11 8 -5 -6z"/>
<path d="M5976 3081 c4 -8 11 -28 15 -45 6 -29 7 -29 8 -5 1 14 -6 34 -15 45
-8 10 -12 13 -8 5z"/>
<path d="M8680 3079 c0 -5 5 -7 10 -4 6 3 10 8 10 11 0 2 -4 4 -10 4 -5 0 -10
-5 -10 -11z"/>
<path d="M8652 3017 c-11 -24 -27 -49 -36 -56 -9 -8 -16 -22 -16 -33 0 -10 -4
-16 -10 -13 -6 3 -7 -1 -4 -10 4 -9 8 -15 9 -13 11 13 85 161 82 164 -3 3 -14
-15 -25 -39z"/>
<path d="M3776 3020 c4 -19 11 -39 16 -45 5 -5 6 5 2 25 -4 19 -11 39 -16 45
-5 5 -6 -5 -2 -25z"/>
<path d="M1141 3027 c-1 -16 46 -117 55 -117 4 0 -10 40 -24 67 -6 10 -15 29
-20 43 -8 18 -11 20 -11 7z"/>
<path d="M1185 3000 c-3 -5 -2 -18 4 -27 7 -14 9 -12 8 10 -2 30 -3 31 -12 17z"/>
<path d="M6011 2973 c7 -12 15 -20 18 -17 3 2 -3 12 -13 22 -17 16 -18 16 -5
-5z"/>
<path d="M6050 2970 c0 -5 5 -10 10 -10 6 0 10 5 10 10 0 6 -4 10 -10 10 -5 0
-10 -4 -10 -10z"/>
<path d="M1220 2870 c0 -5 5 -10 11 -10 5 0 7 5 4 10 -3 6 -8 10 -11 10 -2 0
-4 -4 -4 -10z"/>
<path d="M1247 2843 c-4 -3 -7 -11 -7 -17 0 -6 5 -5 12 2 6 6 9 14 7 17 -3 3
-9 2 -12 -2z"/>
<path d="M3700 2812 c0 -18 5 -32 10 -32 6 0 8 11 4 28 -10 39 -14 40 -14 4z"/>
<path d="M3741 2824 c0 -11 3 -14 6 -6 3 7 2 16 -1 19 -3 4 -6 -2 -5 -13z"/>
<path d="M6057 2811 c-4 -17 -3 -21 5 -13 5 5 8 16 6 23 -3 8 -7 3 -11 -10z"/>
<path d="M3704 2747 c3 -10 6 -24 7 -30 0 -7 5 -1 10 12 5 13 7 26 4 29 -3 3
-5 -1 -5 -9 0 -12 -2 -11 -11 1 -9 12 -10 12 -5 -3z"/>
<path d="M1300 2731 c0 -6 4 -13 10 -16 6 -3 7 1 4 9 -7 18 -14 21 -14 7z"/>
<path d="M8491 2724 c0 -11 3 -14 6 -6 3 7 2 16 -1 19 -3 4 -6 -2 -5 -13z"/>
<path d="M1320 2690 c0 -5 5 -10 10 -10 6 0 10 5 10 10 0 6 -4 10 -10 10 -5 0
-10 -4 -10 -10z"/>
<path d="M3695 2670 c3 -5 8 -10 11 -10 2 0 4 5 4 10 0 6 -5 10 -11 10 -5 0
-7 -4 -4 -10z"/>
<path d="M8445 2659 c-10 -30 0 -33 13 -4 6 14 7 25 2 25 -5 0 -12 -9 -15 -21z"/>
<path d="M1346 2657 c3 -10 9 -15 12 -12 3 3 0 11 -7 18 -10 9 -11 8 -5 -6z"/>
<path d="M6111 2644 c0 -11 3 -14 6 -6 3 7 2 16 -1 19 -3 4 -6 -2 -5 -13z"/>
<path d="M6131 2614 c0 -11 3 -14 6 -6 3 7 2 16 -1 19 -3 4 -6 -2 -5 -13z"/>
<path d="M3675 2599 c-4 -6 -5 -12 -2 -15 2 -3 7 2 10 11 7 17 1 20 -8 4z"/>
<path d="M8393 2575 c-7 -8 -22 -31 -34 -51 -15 -27 -16 -34 -5 -25 9 7 16 18
16 24 0 6 10 21 22 34 12 13 20 25 17 27 -2 2 -10 -2 -16 -9z"/>
<path d="M1400 2572 c0 -5 7 -15 15 -22 8 -7 15 -9 15 -6 0 4 -7 14 -15 22 -8
9 -15 11 -15 6z"/>
<path d="M6127 2540 c3 -11 9 -20 15 -20 5 0 4 9 -2 20 -6 11 -12 20 -14 20
-2 0 -2 -9 1 -20z"/>
<path d="M1470 2471 c0 -5 5 -13 10 -16 6 -3 10 -2 10 4 0 5 -4 13 -10 16 -5
3 -10 2 -10 -4z"/>
<path d="M1506 2415 c9 -14 18 -25 20 -25 2 0 -2 11 -8 25 -6 14 -15 25 -20
25 -5 0 -1 -11 8 -25z"/>
<path d="M1540 2374 c1 -10 59 -82 60 -73 0 3 -13 23 -30 44 -16 21 -30 34
-30 29z"/>
<path d="M8163 2268 c-1 -10 0 -18 2 -18 2 0 9 8 14 18 7 14 6 19 -3 19 -6 0
-13 -9 -13 -19z"/>
<path d="M3544 2188 c0 -36 4 -60 9 -53 4 7 3 37 -2 67 l-9 53 2 -67z"/>
<path d="M6231 2234 c0 -11 3 -14 6 -6 3 7 2 16 -1 19 -3 4 -6 -2 -5 -13z"/>
<path d="M8130 2229 c0 -5 5 -7 10 -4 6 3 10 8 10 11 0 2 -4 4 -10 4 -5 0 -10
-5 -10 -11z"/>
<path d="M8105 2199 c3 -3 -2 -12 -10 -19 -8 -7 -15 -17 -15 -22 0 -9 14 3 37
33 10 13 10 16 -2 16 -8 0 -12 -4 -10 -8z"/>
<path d="M1737 2192 c-16 -7 -16 -8 2 -24 18 -15 19 -15 17 8 0 13 -1 24 -1
23 0 0 -8 -4 -18 -7z"/>
<path d="M1700 2170 c0 -5 5 -10 11 -10 5 0 7 5 4 10 -3 6 -8 10 -11 10 -2 0
-4 -4 -4 -10z"/>
<path d="M8050 2139 c0 -5 5 -7 10 -4 6 3 10 8 10 11 0 2 -4 4 -10 4 -5 0 -10
-5 -10 -11z"/>
<path d="M8035 2109 c-4 -6 -5 -12 -2 -15 2 -3 7 2 10 11 7 17 1 20 -8 4z"/>
<path d="M1786 2094 c-9 -24 -2 -26 12 -4 7 11 8 20 3 20 -5 0 -12 -7 -15 -16z"/>
<path d="M1825 2097 c-23 -26 -26 -37 -11 -31 9 3 16 2 16 -4 0 -6 -5 -12 -11
-14 -8 -3 -7 -7 2 -15 11 -9 14 -3 15 33 0 24 0 44 0 44 -1 -1 -6 -6 -11 -13z"/>
<path d="M3528 2103 c7 -3 16 -2 19 1 4 3 -2 6 -13 5 -11 0 -14 -3 -6 -6z"/>
<path d="M6272 2065 c0 -16 2 -22 5 -12 2 9 2 23 0 30 -3 6 -5 -1 -5 -18z"/>
<path d="M8006 2073 c-6 -14 -5 -15 5 -6 7 7 10 15 7 18 -3 3 -9 -2 -12 -12z"/>
<path d="M7925 2030 c-3 -6 1 -7 9 -4 18 7 21 14 7 14 -6 0 -13 -4 -16 -10z"/>
<path d="M1890 2020 c0 -5 5 -10 11 -10 5 0 7 5 4 10 -3 6 -8 10 -11 10 -2 0
-4 -4 -4 -10z"/>
<path d="M7931 1998 c-14 -23 -14 -23 8 -4 22 20 25 26 13 26 -4 0 -13 -10
-21 -22z"/>
<path d="M1865 1990 c10 -11 20 -18 23 -15 7 6 -18 35 -31 35 -5 0 -2 -9 8
-20z"/>
<path d="M1945 1912 c27 -29 51 -52 52 -52 11 0 -35 53 -65 76 -33 24 -31 21
13 -24z"/>
<path d="M1950 1956 c0 -2 8 -10 18 -17 15 -13 16 -12 3 4 -13 16 -21 21 -21
13z"/>
<path d="M7864 1928 l-29 -33 33 29 c17 17 32 31 32 33 0 8 -8 1 -36 -29z"/>
<path d="M7786 1855 c-14 -13 -26 -27 -26 -31 0 -4 14 5 30 21 17 16 30 30 30
32 0 7 -9 2 -34 -22z"/>
<path d="M2020 1835 c7 -8 17 -15 22 -15 6 0 5 7 -2 15 -7 8 -17 15 -22 15 -6
0 -5 -7 2 -15z"/>
<path d="M2070 1788 c0 -14 15 -16 27 -3 10 11 9 13 -7 12 -11 -1 -20 -5 -20
-9z"/>
<path d="M7700 1775 c-19 -14 -30 -25 -24 -25 10 0 73 49 63 50 -3 0 -20 -11
-39 -25z"/>
<path d="M2100 1761 c0 -5 7 -12 16 -15 14 -5 15 -4 4 9 -14 17 -20 19 -20 6z"/>
<path d="M7645 1730 c-3 -5 -1 -10 4 -10 6 0 11 5 11 10 0 6 -2 10 -4 10 -3 0
-8 -4 -11 -10z"/>
<path d="M2147 1720 c13 -15 60 -23 67 -11 3 4 -7 6 -22 6 -15 -1 -34 3 -42 9
-12 8 -13 7 -3 -4z"/>
<path d="M7609 1693 c-13 -16 -12 -17 4 -4 16 13 21 21 13 21 -2 0 -10 -8 -17
-17z"/>
<path d="M2224 1669 c-3 -6 -2 -15 3 -20 5 -5 9 -1 9 11 0 23 -2 24 -12 9z"/>
<path d="M7560 1659 c0 -5 5 -7 10 -4 6 3 10 8 10 11 0 2 -4 4 -10 4 -5 0 -10
-5 -10 -11z"/>
<path d="M7523 1644 c4 -4 1 -14 -6 -23 -11 -14 -10 -15 8 -1 11 8 21 15 23
16 2 1 -5 5 -15 8 -9 4 -14 4 -10 0z"/>
<path d="M2298 1629 c-24 -13 -23 -21 5 -38 21 -13 21 -12 5 5 -16 16 -16 18
0 30 20 16 14 18 -10 3z"/>
<path d="M7464 1578 c-29 -31 -29 -31 -2 -12 15 10 29 25 32 32 8 18 2 15 -30
-20z"/>
<path d="M2382 1534 c10 -10 20 -16 22 -13 3 3 -5 11 -17 18 -21 13 -21 12 -5
-5z"/>
<path d="M7395 1530 c-3 -5 -1 -10 4 -10 6 0 11 5 11 10 0 6 -2 10 -4 10 -3 0
-8 -4 -11 -10z"/>
<path d="M2455 1478 c11 -6 23 -16 27 -22 5 -8 8 -7 8 1 0 7 -9 17 -19 23 -27
14 -41 12 -16 -2z"/>
<path d="M7266 1440 c-16 -10 -32 -23 -35 -28 -3 -5 -15 -14 -26 -20 -11 -6
-15 -12 -8 -12 6 0 25 11 41 25 17 14 34 25 40 25 5 0 15 7 22 15 17 20 2 18
-34 -5z"/>
<path d="M2508 1443 c7 -3 16 -2 19 1 4 3 -2 6 -13 5 -11 0 -14 -3 -6 -6z"/>
<path d="M2530 1426 c0 -2 7 -7 16 -10 8 -3 12 -2 9 4 -6 10 -25 14 -25 6z"/>
<path d="M2590 1386 c0 -2 7 -7 16 -10 8 -3 12 -2 9 4 -6 10 -25 14 -25 6z"/>
<path d="M7158 1363 c7 -3 16 -2 19 1 4 3 -2 6 -13 5 -11 0 -14 -3 -6 -6z"/>
<path d="M2730 1299 c26 -18 70 -40 70 -35 0 6 -66 46 -76 46 -5 0 -2 -5 6
-11z"/>
<path d="M6970 1300 c8 -5 20 -10 25 -10 6 0 3 5 -5 10 -8 5 -19 10 -25 10 -5
0 -3 -5 5 -10z"/>
<path d="M7068 1303 c7 -3 16 -2 19 1 4 3 -2 6 -13 5 -11 0 -14 -3 -6 -6z"/>
<path d="M6976 1255 c-11 -8 -15 -15 -10 -15 6 0 19 7 30 15 10 8 15 14 9 14
-5 0 -19 -6 -29 -14z"/>
<path d="M2837 1246 c-4 -10 -1 -13 8 -9 8 3 12 9 9 14 -7 12 -11 11 -17 -5z"/>
<path d="M6902 1210 c-18 -11 -41 -20 -52 -20 -10 0 -23 -6 -27 -14 -4 -7 -25
-21 -46 -31 -21 -10 -36 -19 -34 -22 5 -4 176 83 192 98 15 15 3 10 -33 -11z"/>
<path d="M2900 1200 c0 -5 5 -10 10 -10 6 0 10 5 10 10 0 6 -4 10 -10 10 -5 0
-10 -4 -10 -10z"/>
<path d="M2940 1190 c-9 -6 -10 -10 -3 -10 6 0 15 5 18 10 8 12 4 12 -15 0z"/>
<path d="M2998 1148 c5 -5 16 -8 23 -6 8 3 3 7 -10 11 -17 4 -21 3 -13 -5z"/>
<path d="M6660 1089 l-25 -20 33 16 c17 8 32 18 32 20 0 10 -16 4 -40 -16z"/>
<path d="M3185 1060 c3 -5 14 -10 23 -10 15 0 15 2 2 10 -20 13 -33 13 -25 0z"/>
<path d="M6500 1050 c0 -5 5 -10 10 -10 6 0 10 5 10 10 0 6 -4 10 -10 10 -5 0
-10 -4 -10 -10z"/>
<path d="M6588 1053 c7 -3 16 -2 19 1 4 3 -2 6 -13 5 -11 0 -14 -3 -6 -6z"/>
<path d="M6533 1035 c-43 -19 -42 -25 2 -11 19 6 35 14 35 18 0 10 2 10 -37
-7z"/>
<path d="M6250 990 c-18 -12 -2 -12 25 0 13 6 15 9 5 9 -8 0 -22 -4 -30 -9z"/>
<path d="M6458 993 c7 -3 16 -2 19 1 4 3 -2 6 -13 5 -11 0 -14 -3 -6 -6z"/>
<path d="M6393 980 c-35 -14 -27 -20 10 -8 17 6 34 13 36 14 8 7 -24 3 -46 -6z"/>
<path d="M3398 973 c7 -3 16 -2 19 1 4 3 -2 6 -13 5 -11 0 -14 -3 -6 -6z"/>
<path d="M3478 943 c6 -2 18 -2 25 0 6 3 1 5 -13 5 -14 0 -19 -2 -12 -5z"/>
<path d="M6308 943 c7 -3 16 -2 19 1 4 3 -2 6 -13 5 -11 0 -14 -3 -6 -6z"/>
<path d="M3558 913 c7 -3 16 -2 19 1 4 3 -2 6 -13 5 -11 0 -14 -3 -6 -6z"/>
<path d="M6151 895 c-35 -13 -73 -26 -85 -28 -20 -4 -20 -4 -1 -6 12 0 59 12
105 29 47 16 76 29 65 29 -11 0 -49 -11 -84 -24z"/>
<path d="M3670 900 c8 -5 24 -10 34 -10 26 0 18 6 -19 14 -22 5 -26 4 -15 -4z"/>
<path d="M6128 903 c7 -3 16 -2 19 1 4 3 -2 6 -13 5 -11 0 -14 -3 -6 -6z"/>
<path d="M3611 896 c2 -1 20 -8 39 -14 32 -11 33 -10 16 3 -16 12 -69 23 -55
11z"/>
<path d="M3700 872 c8 -5 26 -13 40 -16 17 -5 20 -4 10 2 -8 5 -26 13 -40 16
-17 5 -20 4 -10 -2z"/>
<path d="M6008 843 c7 -3 16 -2 19 1 4 3 -2 6 -13 5 -11 0 -14 -3 -6 -6z"/>
<path d="M3818 833 c7 -3 16 -2 19 1 4 3 -2 6 -13 5 -11 0 -14 -3 -6 -6z"/>
<path d="M5958 833 c7 -3 16 -2 19 1 4 3 -2 6 -13 5 -11 0 -14 -3 -6 -6z"/>
<path d="M3868 823 c6 -2 18 -2 25 0 6 3 1 5 -13 5 -14 0 -19 -2 -12 -5z"/>
<path d="M3990 820 c8 -5 20 -10 25 -10 6 0 3 5 -5 10 -8 5 -19 10 -25 10 -5
0 -3 -5 5 -10z"/>
<path d="M5688 823 c6 -2 18 -2 25 0 6 3 1 5 -13 5 -14 0 -19 -2 -12 -5z"/>
<path d="M3930 810 c8 -5 22 -10 30 -10 13 0 13 1 0 10 -8 5 -22 10 -30 10
-13 0 -13 -1 0 -10z"/>
<path d="M5855 810 c-25 -11 1 -11 35 0 20 6 21 8 5 8 -11 0 -29 -3 -40 -8z"/>
<path d="M4025 790 c3 -5 13 -10 21 -10 8 0 12 5 9 10 -3 6 -13 10 -21 10 -8
0 -12 -4 -9 -10z"/>
<path d="M5788 793 c6 -2 18 -2 25 0 6 3 1 5 -13 5 -14 0 -19 -2 -12 -5z"/>
<path d="M4075 780 c-3 -6 1 -7 9 -4 18 7 21 14 7 14 -6 0 -13 -4 -16 -10z"/>
<path d="M5688 773 c7 -3 16 -2 19 1 4 3 -2 6 -13 5 -11 0 -14 -3 -6 -6z"/>
<path d="M4128 763 c6 -2 18 -2 25 0 6 3 1 5 -13 5 -14 0 -19 -2 -12 -5z"/>
<path d="M4198 753 c6 -2 18 -2 25 0 6 3 1 5 -13 5 -14 0 -19 -2 -12 -5z"/>
<path d="M5583 753 c9 -2 23 -2 30 0 6 3 -1 5 -18 5 -16 0 -22 -2 -12 -5z"/>
<path d="M4325 735 c50 -7 104 -13 120 -13 17 0 -8 6 -55 14 -47 7 -101 12
-120 12 -19 0 6 -6 55 -13z"/>
<path d="M4458 743 c7 -3 16 -2 19 1 4 3 -2 6 -13 5 -11 0 -14 -3 -6 -6z"/>
<path d="M5518 743 c6 -2 18 -2 25 0 6 3 1 5 -13 5 -14 0 -19 -2 -12 -5z"/>
<path d="M5448 733 c6 -2 18 -2 25 0 6 3 1 5 -13 5 -14 0 -19 -2 -12 -5z"/>
<path d="M4808 723 c7 -3 16 -2 19 1 4 3 -2 6 -13 5 -11 0 -14 -3 -6 -6z"/>
<path d="M4898 723 c12 -2 32 -2 45 0 12 2 2 4 -23 4 -25 0 -35 -2 -22 -4z"/>
<path d="M4533 713 c9 -2 25 -2 35 0 9 3 1 5 -18 5 -19 0 -27 -2 -17 -5z"/>
<path d="M5178 713 c7 -3 16 -2 19 1 4 3 -2 6 -13 5 -11 0 -14 -3 -6 -6z"/>
<path d="M5243 713 c9 -2 25 -2 35 0 9 3 1 5 -18 5 -19 0 -27 -2 -17 -5z"/>
<path d="M4618 703 c7 -3 16 -2 19 1 4 3 -2 6 -13 5 -11 0 -14 -3 -6 -6z"/>
<path d="M5103 703 c9 -2 25 -2 35 0 9 3 1 5 -18 5 -19 0 -27 -2 -17 -5z"/>
</g>
</svg>
